<?xml version="1.0" encoding="UTF-8"?>
<svg width="15px" height="15px" viewBox="0 0 15 15" version="1.1" xmlns="http://www.w3.org/2000/svg" xmlns:xlink="http://www.w3.org/1999/xlink">
    <!-- Generator: Sketch 48.2 (47327) - http://www.bohemiancoding.com/sketch -->
    <title>Untitled</title>
    <desc>Created with Sketch.</desc>
    <defs></defs>
    <g id="Page-1" stroke="none" stroke-width="1" fill="none" fill-rule="evenodd">
        <g id="search" fill="#000000" fill-rule="nonzero">
            <path d="M14.6962797,13.2299876 L11.526077,10.0596226 C12.2965908,8.9879718 12.7202178,7.70738283 12.7202178,6.35939444 C12.7202178,4.66144753 12.0591107,3.06459975 10.8566737,1.86333472 C9.65682928,0.662588138 8.05876507,0 6.35959037,0 C4.66093419,0 3.0633885,0.661032766 1.86250702,1.86333472 C0.661625546,3.06356284 0,4.66092908 0,6.35939444 C0,8.05785981 0.66110703,9.65470759 1.86250702,10.8564911 C3.0633885,12.0572377 4.66041568,12.7198258 6.35959037,12.7198258 C7.70721168,12.7198258 8.98690749,12.2983202 10.0597157,11.5258192 L13.2299183,14.6961842 C13.4331763,14.8989009 13.6976192,15 13.963099,15 C14.2290974,15 14.4940587,14.8989009 14.6962797,14.6961842 C15.1012401,14.2907507 15.1012401,13.6349025 14.6962797,13.2299876 Z M3.32938686,9.38977603 C2.51946593,8.57994608 2.07406127,7.50311074 2.07406127,6.35887599 C2.07406127,5.21464123 2.51946593,4.1388428 3.32938686,3.32901286 C4.13878927,2.51918291 5.21470855,2.07330983 6.35959037,2.07330983 C7.50447219,2.07330983 8.58090999,2.51918291 9.39031241,3.32901286 C10.2002333,4.1388428 10.6461565,5.21515968 10.6461565,6.35939444 C10.6461565,7.5036292 10.2007518,8.57994608 9.39031241,9.39029448 C8.58039148,10.2001244 7.50499071,10.6449606 6.35959037,10.6449606 C5.21419004,10.6449606 4.13775224,10.1990875 3.32938686,9.38977603 Z" id="Shape"></path>
        </g>
    </g>
</svg>