<?xml version="1.0" encoding="UTF-8"?>
<svg width="20px" height="20px" viewBox="0 0 20 20" version="1.1" xmlns="http://www.w3.org/2000/svg" xmlns:xlink="http://www.w3.org/1999/xlink">
    <!-- Generator: Sketch 48.2 (47327) - http://www.bohemiancoding.com/sketch -->
    <title>Untitled</title>
    <desc>Created with Sketch.</desc>
    <defs></defs>
    <g id="Page-1" stroke="none" stroke-width="1" fill="none" fill-rule="evenodd">
        <g>
            <polygon id="Stroke-1" stroke-opacity="0.00784313771" stroke="#000000" stroke-width="1.33333335e-11" points="0 0 20 0 20 20 0 20"></polygon>
            <path d="M10.711818,13.1094997 L8.63363628,10.9759995 L8.65818149,10.9504997 C10.0818177,9.30150009 11.0963637,7.4059997 11.693636,5.4 L14.0909091,5.4 L14.0909091,3.7 L8.36363636,3.7 L8.36363636,2 L6.72727273,2 L6.72727273,3.7 L1,3.7 L1,5.3914998 L10.1390909,5.3914998 C9.59090909,7.03200006 8.72363595,8.5875 7.54545455,9.94750026 C6.7845452,9.07199966 6.15454561,8.11149964 5.65545459,7.1 L4.01909095,7.1 C4.61636369,8.48550009 5.43454551,9.7945 6.45727278,10.9759995 L2.29272721,15.2429999 L3.45454545,16.45 L7.54545455,12.2 L10.0899997,14.8435005 L10.711818,13.1095005 L10.711818,13.1094997 Z M15.3181818,8.8 L13.6818182,8.8 L10,19 L11.6363636,19 L12.5527271,16.45 L16.43909,16.45 L17.3636364,19 L19,19 L15.3181818,8.8 Z M13.1745455,14.75 L14.5,11.0695 L15.8254552,14.75 L13.1745455,14.75 Z" id="Fill-2" fill="#000000"></path>
        </g>
    </g>
</svg>